<svg width="12" height="9" viewBox="0 0 12 9" fill="none" xmlns="http://www.w3.org/2000/svg">
<g clip-path="url(#clip0)">
<path d="M2.96054 4.34885C3.05418 4.8799 2.69895 5.38783 2.16742 5.48155C1.63637 5.57519 1.12835 5.21947 1.03472 4.68842C0.940994 4.1569 1.2968 3.64936 1.82784 3.55572C2.35937 3.462 2.86682 3.81732 2.96054 4.34885Z" fill="white"/>
<path d="M1.3427 5.24123L2.62157 3.75234L6.10774 6.74663L4.82888 8.23553L1.3427 5.24123Z" fill="white"/>
<path d="M9.88663 1.88206C9.88663 1.88206 9.87129 1.79789 9.85151 1.69415C9.83229 1.59081 9.81696 1.50664 9.81696 1.50664C9.81696 1.50664 9.83229 1.59081 9.85151 1.69415C9.87129 1.79789 9.87952 1.84459 9.88663 1.88206Z" fill="white"/>
<path d="M9.51665 2.36031C8.98654 2.45925 8.47543 2.10854 8.3765 1.57843C8.27748 1.04784 8.6277 0.536819 9.1583 0.437801C9.68889 0.338782 10.2 0.689486 10.2989 1.2196C10.3979 1.75019 10.0472 2.2613 9.51665 2.36031Z" fill="white"/>
<path d="M8.60849 0.751188L10.1044 2.01046L6.04316 6.83348L4.54721 5.57373L8.60849 0.751188Z" fill="white"/>
</g>
<defs>
<clipPath id="clip0">
<rect width="10" height="7.12311" fill="white" transform="translate(0.45752 1.92235) rotate(-10)"/>
</clipPath>
</defs>
</svg>
